<?xml version="1.0" standalone="no"?>
<!DOCTYPE svg PUBLIC "-//W3C//DTD SVG 20010904//EN"
 "http://www.w3.org/TR/2001/REC-SVG-20010904/DTD/svg10.dtd">
<svg version="1.0" xmlns="http://www.w3.org/2000/svg"
 width="500.000000pt" height="500.000000pt" viewBox="0 0 500.000000 500.000000"
 preserveAspectRatio="xMidYMid meet">
<metadata>
Created by potrace 1.14, written by Peter Selinger 2001-2017
</metadata>
<g transform="translate(0.000000,500.000000) scale(0.100000,-0.100000)"
fill="#000000" stroke="none">
<path d="M2213 4984 c-568 -72 -1068 -312 -1465 -704 -204 -201 -345 -394
-473 -645 -93 -181 -184 -429 -209 -567 -2 -15 -7 -31 -9 -35 -3 -5 -8 -30
-11 -57 -4 -27 -9 -52 -10 -55 -2 -3 -7 -33 -11 -66 -4 -33 -11 -89 -15 -125
-8 -64 -5 -451 3 -500 2 -14 8 -52 12 -85 10 -82 60 -305 86 -385 29 -88 116
-308 137 -346 l17 -31 85 49 c47 27 108 62 135 77 28 16 84 48 125 73 41 25
95 56 120 70 25 14 90 51 145 83 206 120 551 319 582 336 17 10 50 29 72 43
22 15 43 26 46 26 2 0 50 27 106 60 55 33 103 60 105 60 2 0 23 11 45 26 22
14 55 33 72 43 18 10 151 87 297 171 146 84 279 161 297 171 17 10 50 29 72
43 22 15 43 26 45 26 3 0 54 29 113 64 106 62 544 315 613 353 19 11 82 48
138 82 57 33 105 61 107 61 1 0 54 30 116 66 105 61 240 139 569 329 264 152
304 176 308 180 17 17 -169 249 -317 395 -170 170 -363 316 -541 412 -36 19
-76 41 -90 49 -14 7 -27 14 -30 14 -3 0 -19 8 -36 18 -136 72 -445 169 -644
201 -52 8 -111 18 -130 21 -73 13 -475 12 -577 -1z"/>
<path d="M4550 3511 c-174 -101 -803 -465 -880 -509 -19 -11 -123 -70 -230
-132 -107 -62 -208 -121 -225 -130 -168 -97 -356 -206 -380 -220 -16 -9 -106
-61 -200 -115 -93 -54 -233 -135 -310 -180 -77 -44 -147 -84 -155 -88 -8 -4
-28 -15 -45 -26 -34 -21 -230 -134 -415 -240 -69 -39 -132 -75 -140 -81 -14
-8 -157 -91 -225 -130 -16 -10 -192 -111 -390 -226 -198 -114 -399 -230 -447
-257 -49 -27 -88 -53 -88 -57 0 -10 98 -147 153 -215 76 -93 302 -310 402
-386 256 -193 535 -335 825 -418 119 -34 126 -36 269 -62 165 -30 263 -37 476
-34 179 3 238 8 435 41 261 44 628 193 881 359 179 117 241 167 400 325 132
131 219 235 305 365 32 50 61 92 64 95 8 8 56 96 104 190 71 139 165 390 191
510 62 289 70 361 70 625 -1 200 -7 277 -36 435 -17 90 -19 103 -31 145 -6 22
-11 45 -12 50 -9 42 -28 103 -36 117 -6 10 -10 24 -10 31 0 16 -88 236 -116
289 l-19 36 -185 -107z"/>
</g>
</svg>
